<svg width="120.000000" height="66.000000" viewBox="0 0 120 66" fill="none" xmlns="http://www.w3.org/2000/svg" xmlns:xlink="http://www.w3.org/1999/xlink">
	<desc>
			Created with Pixso.
	</desc>
	<defs/>
	<path d="M39.65 32.58L39.65 40.03L47.05 40.03L47.05 43.4Q44.87 44.69 43.19 45.23C42.07 45.59 40.89 45.77 39.65 45.77Q36.79 45.77 34.85 44.43Q34.14 43.95 33.55 43.28Q31.37 40.79 31.37 34.98Q31.37 29.51 33.52 26.99Q34.35 26.03 35.38 25.43Q37.08 24.46 39.33 24.46Q41.77 24.46 43.34 25.53Q43.74 25.8 44.08 26.14Q45.09 27.12 45.58 28.63L56.25 26.73Q55.28 23.26 53.32 21.01C52.04 19.5 50.41 18.38 48.44 17.67Q45.51 16.59 39.58 16.59Q33.42 16.59 29.79 18.33Q26.95 19.7 24.94 21.84Q23.65 23.22 22.71 24.92Q20.29 29.24 20.29 35.1Q20.29 40.67 22.49 44.96Q23.98 47.85 26.28 49.78Q27.4 50.72 28.71 51.43Q32.74 53.61 39.11 53.61C42.56 53.61 45.54 53.21 48.05 52.41C50.57 51.6 53.47 50.07 56.74 47.84L56.74 32.58L39.65 32.58ZM65.65 22.76Q61.92 27.46 61.92 35.12C61.92 39.31 62.74 42.79 64.38 45.57Q66.32 48.85 69.17 50.75Q69.95 51.26 70.8 51.68C73.46 52.96 76.8 53.61 80.84 53.61C84.81 53.61 88.12 52.86 90.77 51.38C93.44 49.89 95.48 47.8 96.88 45.13Q99 41.11 99 34.83Q99 27.3 95.33 22.7Q94.79 22.02 94.17 21.4Q93.77 21.01 93.34 20.64Q88.59 16.59 80.4 16.59Q72.84 16.59 68.17 20.26Q67.45 20.83 66.8 21.48Q66.19 22.09 65.65 22.76ZM74.98 42.96Q72.98 40.59 72.98 35.17C72.98 31.53 73.65 28.91 75 27.34C76.35 25.76 78.14 24.97 80.37 24.97Q82.71 24.97 84.39 26.02Q85.22 26.54 85.89 27.31Q87.94 29.63 87.94 34.68C87.94 38.69 87.29 41.46 85.99 43.01C84.69 44.56 82.85 45.33 80.47 45.33Q78.22 45.33 76.57 44.33Q75.69 43.79 74.98 42.96Z" fill="#FFFFFF" fill-opacity="1.000000" fill-rule="evenodd"/>
	<path d="M1 34L0 34L0 66L51 66L51 65L1 65L1 34Z" fill="#CD06FF" fill-opacity="1.000000" fill-rule="evenodd"/>
	<path d="M119 32L120 32L120 0L69 0L69 1L119 1L119 32Z" fill="#CD06FF" fill-opacity="1.000000" fill-rule="evenodd"/>
</svg>
